#N canvas 5 22 1024 648 10;
#X obj 27 134 hsl 720 20 0 360 0 1 empty empty pan_position 6 10 1
11 -262131 -1 -1 33400 0;
#X floatatom 82 395 5 0 0 0 - - -;
#X obj 80 262 deg2rad;
#X obj 81 306 cos;
#X obj 82 347 max 0;
#X floatatom 148 394 5 0 0 0 - - -;
#X obj 146 261 deg2rad;
#X obj 147 305 cos;
#X obj 148 346 max 0;
#X floatatom 27 396 5 0 0 0 - - -;
#X obj 25 263 deg2rad;
#X obj 26 307 cos;
#X obj 27 348 max 0;
#X obj 25 219 - 0;
#X floatatom 203 393 5 0 0 0 - - -;
#X obj 201 260 deg2rad;
#X obj 202 304 cos;
#X obj 203 345 max 0;
#X floatatom 260 393 5 0 0 0 - - -;
#X obj 258 260 deg2rad;
#X obj 259 304 cos;
#X obj 260 345 max 0;
#X floatatom 317 394 5 0 0 0 - - -;
#X obj 315 261 deg2rad;
#X obj 316 305 cos;
#X obj 317 346 max 0;
#X floatatom 374 394 5 0 0 0 - - -;
#X obj 372 261 deg2rad;
#X obj 373 305 cos;
#X obj 374 346 max 0;
#X floatatom 430 393 5 0 0 0 - - -;
#X obj 428 260 deg2rad;
#X obj 429 304 cos;
#X obj 430 345 max 0;
#X obj 27 448 sig~;
#X obj 27 29 tgl 25 0 empty empty DSP 3 12 1 9 -24198 -1 -1 1 1;
#X msg 27 61 \; pd dsp \$1;
#X obj 930 201 vsl 15 128 0.01 1 1 1 empty empty empty 0 -9 0 10 -262144
-1 -1 9900 0;
#X obj 27 526 *~;
#X obj 788 402 *~;
#X obj 904 352 sig~;
#X obj 79 448 sig~;
#X obj 79 526 *~;
#X obj 146 447 sig~;
#X obj 146 525 *~;
#X obj 202 447 sig~;
#X obj 202 525 *~;
#X obj 260 446 sig~;
#X obj 260 524 *~;
#X obj 316 445 sig~;
#X obj 316 523 *~;
#X obj 374 443 sig~;
#X obj 374 521 *~;
#X obj 432 442 sig~;
#X obj 432 520 *~;
#X obj 863 224 adc~;
#X obj 862 294 +~;
#X obj 848 352 *~ 0.5;
#X obj 897 154 + 1;
#X obj 862 153 int;
#X floatatom 862 186 4 0 0 0 - - -;
#X obj 835 41 loadbang;
#X msg 835 64 1;
#X msg 863 12 bang;
#X msg 879 63 stop;
#X obj 862 112 metro 100;
#X floatatom 802 113 5 0 0 0 - - -;
#X obj 764 92 bng 15 250 50 0 empty empty empty 17 7 0 10 -262144 -1
-1;
#X obj 743 22 moses 360;
#X msg 741 67 bang;
#X obj 14 561 *~ 0.5;
#X floatatom 967 366 5 0 0 0 - - -;
#X text 890 275 comment;
#X obj 830 458 pvu~;
#X obj 912 510 vu 15 120 empty empty -1 -8 0 10 -66577 -1 1 0;
#X obj 812 581 line~;
#X msg 952 74 20;
#X obj 26 607 dac~ 1 2 3 4 5 6 7 8 11 12 13 14 15 16 17;
#X floatatom 485 393 5 0 0 0 - - -;
#X obj 483 260 deg2rad;
#X obj 484 304 cos;
#X obj 485 345 max 0;
#X obj 487 442 sig~;
#X obj 487 520 *~;
#X floatatom 539 393 5 0 0 0 - - -;
#X obj 537 260 deg2rad;
#X obj 538 304 cos;
#X obj 539 345 max 0;
#X obj 541 442 sig~;
#X obj 541 520 *~;
#X floatatom 590 393 5 0 0 0 - - -;
#X obj 588 260 deg2rad;
#X obj 589 304 cos;
#X obj 590 345 max 0;
#X obj 592 442 sig~;
#X obj 592 520 *~;
#X floatatom 639 393 5 0 0 0 - - -;
#X obj 637 260 deg2rad;
#X obj 638 304 cos;
#X obj 639 345 max 0;
#X obj 641 442 sig~;
#X obj 641 520 *~;
#X floatatom 690 392 5 0 0 0 - - -;
#X obj 688 259 deg2rad;
#X obj 689 303 cos;
#X obj 690 344 max 0;
#X obj 692 441 sig~;
#X obj 692 519 *~;
#X floatatom 739 392 5 0 0 0 - - -;
#X obj 737 259 deg2rad;
#X obj 738 303 cos;
#X obj 739 344 max 0;
#X obj 741 441 sig~;
#X obj 741 519 *~;
#X obj 80 218 - 25.71;
#X obj 146 217 - 51.42;
#X obj 201 216 - 77.14;
#X obj 258 216 - 102.85;
#X obj 315 217 - 128.57;
#X obj 372 217 - 154.28;
#X obj 428 216 - 180;
#X obj 483 216 - 205.71;
#X obj 537 216 - 231.42;
#X obj 588 216 - 257.14;
#X obj 637 216 - 282.85;
#X obj 688 215 - 308.57;
#X obj 737 215 - 334.28;
#X obj 372 371 pow 4;
#X obj 315 370 pow 4;
#X obj 257 370 pow 4;
#X obj 429 368 pow 4;
#X obj 484 368 pow 4;
#X obj 538 368 pow 4;
#X obj 589 368 pow 4;
#X obj 638 368 pow 4;
#X obj 689 367 pow 4;
#X obj 738 367 pow 4;
#X obj 199 370 pow 4;
#X obj 145 370 pow 4;
#X obj 80 372 pow 4;
#X obj 26 372 pow 4;
#X connect 0 0 13 0;
#X connect 0 0 114 0;
#X connect 0 0 115 0;
#X connect 0 0 116 0;
#X connect 0 0 117 0;
#X connect 0 0 118 0;
#X connect 0 0 119 0;
#X connect 0 0 120 0;
#X connect 0 0 121 0;
#X connect 0 0 122 0;
#X connect 0 0 123 0;
#X connect 0 0 124 0;
#X connect 0 0 125 0;
#X connect 0 0 126 0;
#X connect 1 0 41 0;
#X connect 2 0 3 0;
#X connect 3 0 4 0;
#X connect 4 0 139 0;
#X connect 5 0 43 0;
#X connect 6 0 7 0;
#X connect 7 0 8 0;
#X connect 8 0 138 0;
#X connect 9 0 34 0;
#X connect 10 0 11 0;
#X connect 11 0 12 0;
#X connect 12 0 140 0;
#X connect 13 0 10 0;
#X connect 14 0 45 0;
#X connect 15 0 16 0;
#X connect 16 0 17 0;
#X connect 17 0 137 0;
#X connect 18 0 47 0;
#X connect 19 0 20 0;
#X connect 20 0 21 0;
#X connect 21 0 129 0;
#X connect 22 0 49 0;
#X connect 23 0 24 0;
#X connect 24 0 25 0;
#X connect 25 0 128 0;
#X connect 26 0 51 0;
#X connect 27 0 28 0;
#X connect 28 0 29 0;
#X connect 29 0 127 0;
#X connect 30 0 53 0;
#X connect 31 0 32 0;
#X connect 32 0 33 0;
#X connect 33 0 130 0;
#X connect 34 0 38 0;
#X connect 35 0 36 0;
#X connect 37 0 40 0;
#X connect 37 0 71 0;
#X connect 38 0 70 0;
#X connect 38 0 77 0;
#X connect 39 0 38 1;
#X connect 39 0 42 1;
#X connect 39 0 46 1;
#X connect 39 0 50 1;
#X connect 39 0 52 1;
#X connect 39 0 54 1;
#X connect 39 0 44 1;
#X connect 39 0 48 1;
#X connect 39 0 73 0;
#X connect 39 0 77 7;
#X connect 39 0 83 1;
#X connect 39 0 89 1;
#X connect 39 0 95 1;
#X connect 39 0 101 1;
#X connect 39 0 107 1;
#X connect 39 0 113 1;
#X connect 40 0 39 1;
#X connect 41 0 42 0;
#X connect 42 0 77 1;
#X connect 43 0 44 0;
#X connect 44 0 77 2;
#X connect 45 0 46 0;
#X connect 46 0 77 3;
#X connect 47 0 48 0;
#X connect 48 0 77 4;
#X connect 49 0 50 0;
#X connect 50 0 77 5;
#X connect 51 0 52 0;
#X connect 52 0 77 6;
#X connect 53 0 54 0;
#X connect 54 0 77 8;
#X connect 55 0 56 0;
#X connect 55 1 56 1;
#X connect 56 0 57 0;
#X connect 57 0 39 0;
#X connect 58 0 59 1;
#X connect 59 0 60 0;
#X connect 59 0 58 0;
#X connect 60 0 0 0;
#X connect 60 0 68 0;
#X connect 61 0 62 0;
#X connect 63 0 65 0;
#X connect 64 0 65 0;
#X connect 65 0 59 0;
#X connect 65 0 60 0;
#X connect 66 0 59 1;
#X connect 67 0 66 0;
#X connect 68 1 69 0;
#X connect 69 0 67 0;
#X connect 73 0 74 0;
#X connect 76 0 65 1;
#X connect 78 0 82 0;
#X connect 79 0 80 0;
#X connect 80 0 81 0;
#X connect 81 0 131 0;
#X connect 82 0 83 0;
#X connect 83 0 77 9;
#X connect 84 0 88 0;
#X connect 85 0 86 0;
#X connect 86 0 87 0;
#X connect 87 0 132 0;
#X connect 88 0 89 0;
#X connect 89 0 77 10;
#X connect 90 0 94 0;
#X connect 91 0 92 0;
#X connect 92 0 93 0;
#X connect 93 0 133 0;
#X connect 94 0 95 0;
#X connect 95 0 77 11;
#X connect 96 0 100 0;
#X connect 97 0 98 0;
#X connect 98 0 99 0;
#X connect 99 0 134 0;
#X connect 100 0 101 0;
#X connect 101 0 77 12;
#X connect 102 0 106 0;
#X connect 103 0 104 0;
#X connect 104 0 105 0;
#X connect 105 0 135 0;
#X connect 106 0 107 0;
#X connect 107 0 77 13;
#X connect 108 0 112 0;
#X connect 109 0 110 0;
#X connect 110 0 111 0;
#X connect 111 0 136 0;
#X connect 112 0 113 0;
#X connect 113 0 77 14;
#X connect 114 0 2 0;
#X connect 115 0 6 0;
#X connect 116 0 15 0;
#X connect 117 0 19 0;
#X connect 118 0 23 0;
#X connect 119 0 27 0;
#X connect 120 0 31 0;
#X connect 121 0 79 0;
#X connect 122 0 85 0;
#X connect 123 0 91 0;
#X connect 124 0 97 0;
#X connect 125 0 103 0;
#X connect 126 0 109 0;
#X connect 127 0 26 0;
#X connect 128 0 22 0;
#X connect 129 0 18 0;
#X connect 130 0 30 0;
#X connect 131 0 78 0;
#X connect 132 0 84 0;
#X connect 133 0 90 0;
#X connect 134 0 96 0;
#X connect 135 0 102 0;
#X connect 136 0 108 0;
#X connect 137 0 14 0;
#X connect 138 0 5 0;
#X connect 139 0 1 0;
#X connect 140 0 9 0;
