#N canvas 305 148 650 466 10;
#X obj 252 23 vsl 15 128 0.01 1 1 0 empty empty empty 0 -9 0 10 -262144
-1 -1 6100 1;
#X obj 113 200 *~;
#X obj 213 167 sig~;
#X floatatom 292 168 5 0 0 0 - - -;
#X obj 95 113 cycle~ 240;
#X obj 102 258 dac~ 1 2 3 4 5 6 7 8 11 12 13 14 15 16 17 18;
#X connect 0 0 3 0;
#X connect 0 0 2 0;
#X connect 2 0 1 1;
#X connect 4 0 1 0;
