#N canvas 503 185 492 482 10;
#X obj 8 18 inlet;
#X floatatom 8 43 5 0 0 0 - - -;
#X floatatom 133 43 5 0 0 0 - - -;
#X floatatom 4 112 5 0 0 0 - - -;
#X obj 124 208 *~;
#X obj 124 343 outlet~;
#X obj 133 17 inlet;
#X obj 75 176 line~;
#X obj 75 145 pack;
#X obj 202 60 loadbang;
#X msg 203 99 500;
#X obj 4 82 expr pow($f1/100 \, $f2);
#X obj 193 17 r~ output;
#X connect 0 0 1 0;
#X connect 1 0 11 0;
#X connect 2 0 11 1;
#X connect 3 0 8 0;
#X connect 4 0 5 0;
#X connect 6 0 2 0;
#X connect 7 0 4 0;
#X connect 8 0 7 0;
#X connect 9 0 10 0;
#X connect 10 0 8 1;
#X connect 11 0 3 0;
#X connect 12 0 4 1;
