#N canvas 415 151 492 482 10;
#X obj 8 18 inlet;
#X floatatom 8 43 5 0 0 0 - - -;
#X floatatom 133 43 5 0 0 0 - - -;
#X obj 4 82 expr pow($f1/100 \, $i2);
#X floatatom 4 112 5 0 0 0 - - -;
#X obj 21 246 sig~;
#X obj 124 208 *~;
#X obj 124 255 outlet~;
#X obj 203 17 inlet~;
#X obj 133 17 inlet;
#X obj 75 176 line~;
#X obj 75 145 pack;
#X obj 202 60 loadbang;
#X msg 203 99 1000;
#X connect 0 0 1 0;
#X connect 1 0 3 0;
#X connect 2 0 3 1;
#X connect 3 0 4 0;
#X connect 4 0 11 0;
#X connect 6 0 7 0;
#X connect 8 0 6 1;
#X connect 9 0 2 0;
#X connect 10 0 6 0;
#X connect 11 0 10 0;
#X connect 12 0 13 0;
#X connect 13 0 11 1;
