#N canvas 0 22 1024 648 10;
#X obj 15 15 netreceive 3001 1;
#X floatatom 15 80 5 0 0 0 - - -;
#X floatatom 52 80 5 0 0 0 - - -;
#X floatatom 89 80 5 0 0 0 - - -;
#X floatatom 126 80 5 0 0 0 - - -;
#X floatatom 163 80 5 0 0 0 - - -;
#X floatatom 200 80 5 0 0 0 - - -;
#X floatatom 237 80 5 0 0 0 - - -;
#X floatatom 274 80 5 0 0 0 - - -;
#X floatatom 311 80 5 0 0 0 - - -;
#X floatatom 348 80 5 0 0 0 - - -;
#X floatatom 385 80 5 0 0 0 - - -;
#X floatatom 422 80 5 0 0 0 - - -;
#X floatatom 459 80 5 0 0 0 - - -;
#X floatatom 496 80 5 0 0 0 - - -;
#X obj 838 55 tgl 25 0 empty empty DSP 3 12 1 9 -24198 -1 -1 1 1;
#X msg 838 88 \; pd dsp \$1;
#X obj 781 58 vsl 15 128 0.01 1 1 1 empty empty empty 0 -9 0 10 -262144
-1 -1 9100 0;
#X obj 699 246 *~;
#X floatatom 781 210 5 0 0 0 - - -;
#X obj 712 332 vu 15 120 empty empty -1 -8 0 10 -66577 -1 1 0;
#X obj 15 599 dac~ 1 2 3 4 5 6 7 8 11 12 13 14 15 16 17;
#X obj 539 113 loadbang;
#X obj 154 550 *~;
#X floatatom 605 530 5 0 0 0 - - -;
#X text 807 166 master volume;
#X floatatom 785 431 0 0 0 0 - - -;
#X msg 785 297 disconnect;
#X floatatom 866 409 10 0 0 0 - - -;
#X text 935 409 ogg pages;
#X text 814 431 connection state;
#X msg 785 323 passwd zpw0c;
#X floatatom 834 598 5 0 0 0 - - -;
#X msg 747 517 disconnect;
#X text 849 536 get remote OGG;
#X text 902 309 send OGG;
#X text 632 481 bass volume;
#X text 729 597 connection state;
#X msg 785 348 vorbis 44100 2 144 128 96;
#X obj 785 382 oggcast~ 2 256;
#X obj 644 106 reverb_effect;
#X msg 497 38 100;
#X floatatom 623 162 5 0 0 0 - - -;
#X floatatom 581 195 5 0 0 0 - - -;
#X obj 581 272 *~;
#X obj 623 195 / 100;
#X obj 581 227 cycle~;
#X obj 539 586 hip~ 0;
#X obj 467 587 lop~ 2500;
#X obj 747 571 oggamp~ 0 2 256;
#X msg 785 271 connect giss.tv doppelganger.ogg 8001;
#X msg 747 492 connect giss.tv dg-aarhus.ogg 8000;
#X obj 639 53 adc~ 1 2 11 12 19 20;
#X obj 738 87 +~;
#X obj 738 113 *~ 0.5;
#X msg 526 38 0;
#X obj 573 9 netreceive 4001 1;
#X floatatom 546 70 5 0 0 0 - - -;
#X obj 729 141 spigot~;
#X floatatom 581 70 5 0 0 0 - - -;
#X obj 573 33 unpack 0 0 0;
#X floatatom 616 70 5 0 0 0 - - -;
#X obj 686 611 spigot~;
#X obj 811 134 spigot~;
#X msg 578 134 0;
#X msg 607 134 1;
#X obj 681 213 delay~ 441000;
#X msg 544 10 0;
#X obj 644 134 *~ 2;
#X obj 685 134 *~ 2;
#X floatatom 905 209 5 0 0 0 - - -;
#X obj 711 288 pvu~ 20;
#X obj 903 151 pvu~ 20;
#X msg 530 147 1;
#X obj 15 172 channel_process;
#X obj 947 239 line~;
#X obj 905 238 pack;
#X obj 764 16 *~;
#X obj 605 369 vsl 15 128 0.01 1 1 1 empty empty empty 0 -9 0 10 -262144
-1 -1 6900 0;
#X obj 624 294 s~ output;
#X obj 311 364 channel_process;
#X obj 200 293 channel_process;
#X obj 274 339 channel_process;
#X obj 237 316 channel_process;
#X obj 52 197 channel_process;
#X obj 126 246 channel_process;
#X obj 89 222 channel_process;
#X obj 163 270 channel_process;
#X obj 496 483 channel_process;
#X obj 385 413 channel_process;
#X obj 348 389 channel_process;
#X obj 422 437 channel_process;
#X obj 459 460 channel_process;
#X obj 721 9 *~;
#X msg 726 175 44100;
#X msg 950 209 25;
#X obj 984 54 vsl 15 64 0 20 0 1 empty empty empty 0 -9 0 10 -262144
-1 -1 1600 1;
#X floatatom 984 148 5 0 0 0 - - -;
#X obj 903 177 expr max($f2-$f1+$f3 \, 0)/($f2-$f1+$f3);
#X obj 836 237 spigot~;
#X msg 675 32 1;
#X obj 566 322 netreceive 5001 1;
#X floatatom 566 351 5 0 0 0 - - -;
#X obj 15 39 unpack 0 0 0 0 0 0 0 0 0 0 0 0 0 0 0;
#X floatatom 483 119 5 0 0 0 - - -;
#N canvas 320 184 450 300 bass_process 0;
#X obj 18 28 inlet;
#X floatatom 18 53 5 0 0 0 - - -;
#X floatatom 143 53 5 0 0 0 - - -;
#X floatatom 14 122 5 0 0 0 - - -;
#X obj 134 218 *~;
#X obj 134 353 outlet~;
#X obj 143 27 inlet;
#X obj 85 186 line~;
#X obj 85 155 pack;
#X obj 212 70 loadbang;
#X obj 14 92 expr pow($f1/100 \, $f2);
#X obj 219 212 cycle~ 50;
#X obj 192 157 pack;
#X obj 196 181 line;
#X obj 196 130 expr 160-$f1*120;
#X msg 197 101 500;
#X connect 0 0 1 0;
#X connect 1 0 10 0;
#X connect 2 0 10 1;
#X connect 3 0 8 0;
#X connect 3 0 14 0;
#X connect 4 0 5 0;
#X connect 6 0 2 0;
#X connect 7 0 4 0;
#X connect 8 0 7 0;
#X connect 9 0 15 0;
#X connect 10 0 3 0;
#X connect 11 0 4 1;
#X connect 12 0 13 0;
#X connect 13 0 11 0;
#X connect 14 0 12 0;
#X connect 15 0 8 1;
#X connect 15 0 12 1;
#X restore 186 474 pd bass_process;
#X msg 304 408 6;
#X connect 0 0 103 0;
#X connect 1 0 74 0;
#X connect 2 0 84 0;
#X connect 3 0 86 0;
#X connect 4 0 85 0;
#X connect 5 0 87 0;
#X connect 6 0 81 0;
#X connect 7 0 83 0;
#X connect 8 0 82 0;
#X connect 9 0 80 0;
#X connect 10 0 90 0;
#X connect 11 0 89 0;
#X connect 12 0 91 0;
#X connect 13 0 92 0;
#X connect 14 0 88 0;
#X connect 15 0 16 0;
#X connect 17 0 19 0;
#X connect 17 0 18 1;
#X connect 18 0 79 0;
#X connect 18 0 71 0;
#X connect 22 0 31 0;
#X connect 22 0 38 0;
#X connect 22 0 73 0;
#X connect 22 0 55 0;
#X connect 22 0 64 0;
#X connect 22 0 65 0;
#X connect 22 0 94 0;
#X connect 22 0 106 0;
#X connect 23 0 21 7;
#X connect 27 0 39 0;
#X connect 31 0 39 0;
#X connect 33 0 49 0;
#X connect 38 0 39 0;
#X connect 39 0 26 0;
#X connect 39 1 28 0;
#X connect 40 0 68 0;
#X connect 40 1 69 0;
#X connect 41 0 14 0;
#X connect 41 0 13 0;
#X connect 41 0 12 0;
#X connect 41 0 11 0;
#X connect 41 0 10 0;
#X connect 41 0 9 0;
#X connect 41 0 8 0;
#X connect 41 0 7 0;
#X connect 41 0 6 0;
#X connect 41 0 5 0;
#X connect 41 0 4 0;
#X connect 41 0 3 0;
#X connect 41 0 2 0;
#X connect 41 0 1 0;
#X connect 42 0 45 0;
#X connect 43 0 46 0;
#X connect 45 0 44 1;
#X connect 46 0 44 0;
#X connect 47 0 48 0;
#X connect 49 0 62 0;
#X connect 49 1 62 0;
#X connect 49 2 32 0;
#X connect 50 0 39 0;
#X connect 51 0 49 0;
#X connect 52 0 93 0;
#X connect 52 0 40 2;
#X connect 52 1 77 0;
#X connect 52 1 40 3;
#X connect 52 2 93 0;
#X connect 52 2 40 0;
#X connect 52 3 77 0;
#X connect 52 3 40 1;
#X connect 52 4 53 0;
#X connect 52 5 53 1;
#X connect 53 0 54 0;
#X connect 54 0 58 0;
#X connect 55 0 14 0;
#X connect 55 0 13 0;
#X connect 55 0 12 0;
#X connect 55 0 11 0;
#X connect 55 0 10 0;
#X connect 55 0 9 0;
#X connect 55 0 8 0;
#X connect 55 0 7 0;
#X connect 55 0 6 0;
#X connect 55 0 5 0;
#X connect 55 0 4 0;
#X connect 55 0 3 0;
#X connect 55 0 2 0;
#X connect 55 0 1 0;
#X connect 56 0 60 0;
#X connect 56 0 100 0;
#X connect 57 0 62 1;
#X connect 58 1 18 0;
#X connect 59 0 63 1;
#X connect 59 0 99 1;
#X connect 60 0 57 0;
#X connect 60 1 59 0;
#X connect 60 2 61 0;
#X connect 61 0 58 1;
#X connect 62 1 18 0;
#X connect 63 1 72 0;
#X connect 64 0 59 0;
#X connect 64 0 61 0;
#X connect 65 0 57 0;
#X connect 66 0 18 0;
#X connect 67 0 59 0;
#X connect 68 0 39 0;
#X connect 68 0 63 0;
#X connect 68 0 66 0;
#X connect 69 0 39 1;
#X connect 69 0 66 0;
#X connect 70 0 76 0;
#X connect 71 0 20 0;
#X connect 71 0 98 0;
#X connect 72 0 98 1;
#X connect 73 0 74 1;
#X connect 73 0 80 1;
#X connect 73 0 81 1;
#X connect 73 0 82 1;
#X connect 73 0 83 1;
#X connect 73 0 84 1;
#X connect 73 0 85 1;
#X connect 73 0 86 1;
#X connect 73 0 87 1;
#X connect 73 0 88 1;
#X connect 73 0 89 1;
#X connect 73 0 90 1;
#X connect 73 0 91 1;
#X connect 73 0 92 1;
#X connect 74 0 21 0;
#X connect 75 0 99 0;
#X connect 76 0 75 0;
#X connect 78 0 24 0;
#X connect 78 0 23 1;
#X connect 80 0 21 9;
#X connect 81 0 21 5;
#X connect 82 0 21 8;
#X connect 83 0 21 6;
#X connect 84 0 21 1;
#X connect 85 0 21 3;
#X connect 86 0 21 2;
#X connect 87 0 21 4;
#X connect 88 0 21 14;
#X connect 89 0 21 11;
#X connect 90 0 21 10;
#X connect 91 0 21 12;
#X connect 92 0 21 13;
#X connect 94 0 66 1;
#X connect 95 0 76 1;
#X connect 96 0 97 0;
#X connect 97 0 98 2;
#X connect 98 0 70 0;
#X connect 99 1 93 1;
#X connect 99 1 77 1;
#X connect 100 0 93 1;
#X connect 100 0 77 1;
#X connect 101 0 102 0;
#X connect 103 0 1 0;
#X connect 103 1 2 0;
#X connect 103 2 3 0;
#X connect 103 3 4 0;
#X connect 103 4 5 0;
#X connect 103 5 6 0;
#X connect 103 6 7 0;
#X connect 103 7 8 0;
#X connect 103 8 9 0;
#X connect 103 9 10 0;
#X connect 103 10 11 0;
#X connect 103 11 12 0;
#X connect 103 12 13 0;
#X connect 103 13 14 0;
#X connect 103 14 104 0;
#X connect 104 0 105 0;
#X connect 105 0 23 0;
#X connect 106 0 105 1;
