#N canvas 0 22 1024 648 10;
#X obj 15 15 netreceive 3001 1;
#X obj 15 39 unpack 0 0 0 0 0 0 0 0 0 0 0 0 0 0;
#X floatatom 16 80 5 0 0 0 - - -;
#X floatatom 53 80 5 0 0 0 - - -;
#X floatatom 90 80 5 0 0 0 - - -;
#X floatatom 127 80 5 0 0 0 - - -;
#X floatatom 164 80 5 0 0 0 - - -;
#X floatatom 201 80 5 0 0 0 - - -;
#X floatatom 238 80 5 0 0 0 - - -;
#X floatatom 275 80 5 0 0 0 - - -;
#X floatatom 312 80 5 0 0 0 - - -;
#X floatatom 349 80 5 0 0 0 - - -;
#X floatatom 386 80 5 0 0 0 - - -;
#X floatatom 423 80 5 0 0 0 - - -;
#X floatatom 460 80 5 0 0 0 - - -;
#X floatatom 497 80 5 0 0 0 - - -;
#X obj 838 56 tgl 25 0 empty empty DSP 3 12 1 9 -24198 -1 -1 1 1;
#X msg 838 88 \; pd dsp \$1;
#X obj 781 58 vsl 15 128 0.01 1 1 1 empty empty empty 0 -9 0 10 -262144
-1 -1 11400 0;
#X obj 699 246 *~;
#X floatatom 781 210 5 0 0 0 - - -;
#X obj 699 281 pvu~;
#X obj 700 319 vu 15 120 empty empty -1 -8 0 10 -66577 -1 1 0;
#X obj 15 599 dac~ 1 2 3 4 5 6 7 8 11 12 13 14 15 16 17;
#X obj 567 128 loadbang;
#X obj 237 316 channel_process;
#X obj 15 172 channel_process;
#X obj 126 246 channel_process;
#X obj 52 197 channel_process;
#X obj 89 222 channel_process;
#X obj 163 270 channel_process;
#X obj 200 293 channel_process;
#X obj 496 483 channel_process;
#X obj 274 339 channel_process;
#X obj 385 413 channel_process;
#X obj 311 364 channel_process;
#X obj 348 389 channel_process;
#X obj 422 437 channel_process;
#X obj 459 460 channel_process;
#X obj 605 369 vsl 15 128 0.01 1 1 1 empty empty empty 0 -9 0 10 -262144
-1 -1 10800 0;
#X obj 527 531 *~;
#X floatatom 605 530 5 0 0 0 - - -;
#X text 807 166 master volume;
#X floatatom 785 431 0 0 0 0 - - -;
#X msg 785 297 disconnect;
#X floatatom 866 409 10 0 0 0 - - -;
#X text 935 409 ogg pages;
#X text 814 431 connection state;
#X msg 785 271 connect giss.tv doppelganger.ogg 8000;
#X msg 785 323 passwd zpw0c;
#X floatatom 834 598 5 0 0 0 - - -;
#X msg 747 517 disconnect;
#X text 849 536 get remote OGG;
#X text 902 309 send OGG;
#X text 632 481 bass volume;
#X text 729 597 connection state;
#X msg 785 348 vorbis 44100 2 144 128 96;
#X msg 747 492 connect giss.tv doppelganger.ogg 8000;
#X obj 747 571 oggamp~ 1 2 256;
#X obj 785 382 oggcast~ 2 256;
#X msg 567 170 1;
#X obj 639 53 adc~ 1 2 11 12;
#X obj 643 100 reverb_effect;
#X obj 683 134 *~ 1.5;
#X obj 728 134 *~ 1.5;
#X connect 0 0 1 0;
#X connect 1 0 2 0;
#X connect 1 1 3 0;
#X connect 1 2 4 0;
#X connect 1 3 5 0;
#X connect 1 4 6 0;
#X connect 1 5 7 0;
#X connect 1 6 8 0;
#X connect 1 7 9 0;
#X connect 1 8 10 0;
#X connect 1 9 11 0;
#X connect 1 10 12 0;
#X connect 1 11 13 0;
#X connect 1 12 14 0;
#X connect 1 13 15 0;
#X connect 2 0 26 0;
#X connect 3 0 28 0;
#X connect 4 0 29 0;
#X connect 5 0 27 0;
#X connect 6 0 30 0;
#X connect 7 0 31 0;
#X connect 8 0 25 0;
#X connect 9 0 33 0;
#X connect 10 0 35 0;
#X connect 11 0 36 0;
#X connect 12 0 34 0;
#X connect 13 0 37 0;
#X connect 14 0 38 0;
#X connect 15 0 32 0;
#X connect 16 0 17 0;
#X connect 18 0 20 0;
#X connect 18 0 19 1;
#X connect 19 0 21 0;
#X connect 19 0 25 2;
#X connect 19 0 26 2;
#X connect 19 0 27 2;
#X connect 19 0 28 2;
#X connect 19 0 29 2;
#X connect 19 0 30 2;
#X connect 19 0 31 2;
#X connect 19 0 40 0;
#X connect 19 0 33 2;
#X connect 19 0 35 2;
#X connect 19 0 36 2;
#X connect 19 0 34 2;
#X connect 19 0 37 2;
#X connect 19 0 38 2;
#X connect 19 0 32 2;
#X connect 19 0 23 8;
#X connect 21 0 22 0;
#X connect 24 0 49 0;
#X connect 24 0 56 0;
#X connect 24 0 60 0;
#X connect 25 0 23 6;
#X connect 26 0 23 0;
#X connect 27 0 23 3;
#X connect 28 0 23 1;
#X connect 29 0 23 2;
#X connect 30 0 23 4;
#X connect 31 0 23 5;
#X connect 32 0 23 14;
#X connect 33 0 23 8;
#X connect 34 0 23 11;
#X connect 35 0 23 9;
#X connect 36 0 23 10;
#X connect 37 0 23 12;
#X connect 38 0 23 13;
#X connect 39 0 41 0;
#X connect 39 0 40 1;
#X connect 40 0 23 7;
#X connect 44 0 59 0;
#X connect 48 0 59 0;
#X connect 49 0 59 0;
#X connect 51 0 58 0;
#X connect 56 0 59 0;
#X connect 57 0 58 0;
#X connect 58 2 50 0;
#X connect 59 0 43 0;
#X connect 59 1 45 0;
#X connect 60 0 25 1;
#X connect 60 0 26 1;
#X connect 60 0 27 1;
#X connect 60 0 28 1;
#X connect 60 0 29 1;
#X connect 60 0 30 1;
#X connect 60 0 31 1;
#X connect 60 0 33 1;
#X connect 60 0 35 1;
#X connect 60 0 36 1;
#X connect 60 0 34 1;
#X connect 60 0 37 1;
#X connect 60 0 38 1;
#X connect 60 0 32 1;
#X connect 61 0 62 0;
#X connect 61 1 62 1;
#X connect 61 2 62 2;
#X connect 61 3 62 3;
#X connect 62 0 63 0;
#X connect 62 1 64 0;
#X connect 63 0 19 0;
#X connect 63 0 59 0;
#X connect 64 0 19 0;
#X connect 64 0 59 1;
