#N canvas 0 22 1024 648 10;
#X obj 15 15 netreceive 3001 1;
#X obj 15 39 unpack 0 0 0 0 0 0 0 0 0 0 0 0 0 0;
#X floatatom 15 80 5 0 0 0 - - -;
#X floatatom 52 80 5 0 0 0 - - -;
#X floatatom 89 80 5 0 0 0 - - -;
#X floatatom 126 80 5 0 0 0 - - -;
#X floatatom 163 80 5 0 0 0 - - -;
#X floatatom 200 80 5 0 0 0 - - -;
#X floatatom 237 80 5 0 0 0 - - -;
#X floatatom 274 80 5 0 0 0 - - -;
#X floatatom 311 80 5 0 0 0 - - -;
#X floatatom 348 80 5 0 0 0 - - -;
#X floatatom 385 80 5 0 0 0 - - -;
#X floatatom 422 80 5 0 0 0 - - -;
#X floatatom 459 80 5 0 0 0 - - -;
#X floatatom 496 80 5 0 0 0 - - -;
#X obj 838 56 tgl 25 0 empty empty DSP 3 12 1 9 -24198 -1 -1 1 1;
#X msg 838 88 \; pd dsp \$1;
#X obj 781 58 vsl 15 128 0.01 1 1 1 empty empty empty 0 -9 0 10 -262144
-1 -1 7500 0;
#X obj 699 246 *~;
#X floatatom 781 210 5 0 0 0 - - -;
#X obj 699 281 pvu~;
#X obj 700 319 vu 15 120 empty empty -1 -8 0 10 -66577 -1 1 0;
#X obj 15 599 dac~ 1 2 3 4 5 6 7 8 11 12 13 14 15 16 17;
#X obj 539 113 loadbang;
#X obj 605 369 vsl 15 128 0.01 1 1 1 empty empty empty 0 -9 0 10 -262144
-1 -1 8400 0;
#X obj 527 531 *~;
#X floatatom 605 530 5 0 0 0 - - -;
#X text 807 166 master volume;
#X floatatom 785 431 0 0 0 0 - - -;
#X msg 785 297 disconnect;
#X floatatom 866 409 10 0 0 0 - - -;
#X text 935 409 ogg pages;
#X text 814 431 connection state;
#X msg 785 323 passwd zpw0c;
#X floatatom 834 598 5 0 0 0 - - -;
#X msg 747 517 disconnect;
#X text 849 536 get remote OGG;
#X text 902 309 send OGG;
#X text 632 481 bass volume;
#X text 729 597 connection state;
#X msg 785 348 vorbis 44100 2 144 128 96;
#X obj 785 382 oggcast~ 2 256;
#X obj 643 100 reverb_effect;
#X msg 497 38 100;
#X floatatom 623 162 5 0 0 0 - - -;
#X floatatom 581 195 5 0 0 0 - - -;
#X obj 581 272 *~;
#X obj 623 195 / 100;
#X obj 581 227 cycle~;
#X obj -283 55 hip~ 500;
#X obj -273 65 hip~ 500;
#X obj -283 55 hip~ 500;
#X obj -293 45 hip~ 500;
#X obj 539 586 hip~ 0;
#X obj 467 587 lop~ 2500;
#X obj 747 571 oggamp~ 0 2 256;
#X msg 785 271 connect giss.tv doppelganger.ogg 8001;
#X msg 747 492 connect giss.tv dg-aarhus.ogg 8000;
#X obj 639 53 adc~ 1 2 11 12 19 20;
#X obj 738 87 +~;
#X obj 738 113 *~ 0.5;
#X obj 237 316 channel_process;
#X msg 526 38 0;
#X obj 52 197 channel_process;
#X obj 15 172 channel_process;
#X obj 126 246 channel_process;
#X obj 89 222 channel_process;
#X obj 163 270 channel_process;
#X obj 200 293 channel_process;
#X obj 496 483 channel_process;
#X obj 274 339 channel_process;
#X obj 385 413 channel_process;
#X obj 311 364 channel_process;
#X obj 348 389 channel_process;
#X obj 422 437 channel_process;
#X obj 459 460 channel_process;
#X msg 539 155 1;
#X obj 573 9 netreceive 4001 1;
#X floatatom 546 70 5 0 0 0 - - -;
#X obj 729 141 spigot~;
#X floatatom 581 70 5 0 0 0 - - -;
#X obj 573 33 unpack 0 0 0;
#X floatatom 616 70 5 0 0 0 - - -;
#X obj 686 611 spigot~;
#X obj 669 180 spigot~;
#X msg 578 134 0;
#X msg 607 135 1;
#X obj 692 209 delay~ 441000;
#X msg 726 175 44100;
#X obj 644 134 *~ 1.5;
#X obj 685 134 *~ 1.5;
#X connect 1 0 2 0;
#X connect 1 1 3 0;
#X connect 1 2 4 0;
#X connect 1 3 5 0;
#X connect 1 4 6 0;
#X connect 1 5 7 0;
#X connect 1 6 8 0;
#X connect 1 7 9 0;
#X connect 1 8 10 0;
#X connect 1 9 11 0;
#X connect 1 10 12 0;
#X connect 1 11 13 0;
#X connect 1 12 14 0;
#X connect 1 13 15 0;
#X connect 2 0 65 0;
#X connect 3 0 64 0;
#X connect 4 0 67 0;
#X connect 5 0 66 0;
#X connect 6 0 68 0;
#X connect 7 0 69 0;
#X connect 8 0 62 0;
#X connect 9 0 71 0;
#X connect 10 0 73 0;
#X connect 11 0 74 0;
#X connect 12 0 72 0;
#X connect 13 0 75 0;
#X connect 14 0 76 0;
#X connect 15 0 70 0;
#X connect 16 0 17 0;
#X connect 18 0 20 0;
#X connect 18 0 19 1;
#X connect 19 0 21 0;
#X connect 19 0 26 0;
#X connect 19 0 62 2;
#X connect 19 0 64 2;
#X connect 19 0 65 2;
#X connect 19 0 66 2;
#X connect 19 0 67 2;
#X connect 19 0 68 2;
#X connect 19 0 69 2;
#X connect 19 0 70 2;
#X connect 19 0 71 2;
#X connect 19 0 72 2;
#X connect 19 0 73 2;
#X connect 19 0 74 2;
#X connect 19 0 75 2;
#X connect 19 0 76 2;
#X connect 21 0 22 0;
#X connect 24 0 34 0;
#X connect 24 0 41 0;
#X connect 24 0 77 0;
#X connect 24 0 63 0;
#X connect 24 0 86 0;
#X connect 24 0 87 0;
#X connect 24 0 89 0;
#X connect 25 0 27 0;
#X connect 25 0 26 1;
#X connect 26 0 23 7;
#X connect 30 0 42 0;
#X connect 34 0 42 0;
#X connect 36 0 56 0;
#X connect 41 0 42 0;
#X connect 42 0 29 0;
#X connect 42 1 31 0;
#X connect 43 0 90 0;
#X connect 43 1 91 0;
#X connect 44 0 15 0;
#X connect 44 0 14 0;
#X connect 44 0 13 0;
#X connect 44 0 12 0;
#X connect 44 0 11 0;
#X connect 44 0 10 0;
#X connect 44 0 9 0;
#X connect 44 0 8 0;
#X connect 44 0 7 0;
#X connect 44 0 6 0;
#X connect 44 0 5 0;
#X connect 44 0 4 0;
#X connect 44 0 3 0;
#X connect 44 0 2 0;
#X connect 45 0 48 0;
#X connect 46 0 49 0;
#X connect 48 0 47 1;
#X connect 49 0 47 0;
#X connect 54 0 55 0;
#X connect 56 0 84 0;
#X connect 56 1 84 0;
#X connect 56 2 35 0;
#X connect 57 0 42 0;
#X connect 58 0 56 0;
#X connect 59 0 43 0;
#X connect 59 1 43 1;
#X connect 59 2 43 2;
#X connect 59 3 43 3;
#X connect 59 4 60 0;
#X connect 59 5 60 1;
#X connect 60 0 61 0;
#X connect 61 0 80 0;
#X connect 61 0 85 0;
#X connect 62 0 23 6;
#X connect 63 0 15 0;
#X connect 63 0 14 0;
#X connect 63 0 13 0;
#X connect 63 0 12 0;
#X connect 63 0 11 0;
#X connect 63 0 10 0;
#X connect 63 0 9 0;
#X connect 63 0 8 0;
#X connect 63 0 7 0;
#X connect 63 0 6 0;
#X connect 63 0 5 0;
#X connect 63 0 4 0;
#X connect 63 0 3 0;
#X connect 63 0 2 0;
#X connect 64 0 23 1;
#X connect 65 0 23 0;
#X connect 66 0 23 3;
#X connect 67 0 23 2;
#X connect 68 0 23 4;
#X connect 69 0 23 5;
#X connect 70 0 23 14;
#X connect 71 0 23 8;
#X connect 72 0 23 11;
#X connect 73 0 23 9;
#X connect 74 0 23 10;
#X connect 75 0 23 12;
#X connect 76 0 23 13;
#X connect 77 0 62 1;
#X connect 77 0 64 1;
#X connect 77 0 65 1;
#X connect 77 0 66 1;
#X connect 77 0 67 1;
#X connect 77 0 68 1;
#X connect 77 0 69 1;
#X connect 77 0 70 1;
#X connect 77 0 71 1;
#X connect 77 0 72 1;
#X connect 77 0 73 1;
#X connect 77 0 74 1;
#X connect 77 0 75 1;
#X connect 77 0 76 1;
#X connect 78 0 82 0;
#X connect 79 0 84 1;
#X connect 80 1 19 0;
#X connect 81 0 85 1;
#X connect 82 0 79 0;
#X connect 82 1 81 0;
#X connect 82 2 83 0;
#X connect 83 0 80 1;
#X connect 84 1 19 0;
#X connect 85 1 88 0;
#X connect 86 0 81 0;
#X connect 86 0 83 0;
#X connect 87 0 79 0;
#X connect 88 0 19 0;
#X connect 89 0 88 1;
#X connect 90 0 42 0;
#X connect 91 0 42 1;
