#N canvas 0 22 1024 596 10;
#X obj -131 299 freeverb~;
#X msg -46 255 wet \$1;
#X msg -48 328 dry \$1;
#X msg -46 408 roomsize \$1;
#X obj -43 233 hsl 128 15 0 1 0 0 empty empty empty -2 -8 0 10 -262144
-1 -1 0 1;
#X obj -45 299 hsl 128 15 0 1 0 0 empty empty empty -2 -8 0 10 -262144
-1 -1 0 1;
#X obj -42 373 hsl 128 15 0 1 0 0 empty empty empty -2 -8 0 10 -262144
-1 -1 0 1;
#X floatatom 37 410 5 0 0 0 - - -;
#X floatatom 8 329 5 0 0 0 - - -;
#X floatatom 8 255 5 0 0 0 - - -;
#X obj -34 115 delwrite~ delay1 400;
#N canvas 301 214 470 421 limit 0;
#X obj 86 322 *~;
#X obj 121 80 env~;
#X obj 121 102 dbtorms;
#X obj 86 57 inlet~;
#X obj 83 348 outlet~;
#X obj 230 320 *~;
#X obj 230 55 inlet~;
#X obj 227 346 outlet~;
#X msg 130 178 1 \$1;
#X obj 132 205 /;
#X obj 121 238 min 1;
#X obj 124 141 + 0.5;
#X obj 117 272 lop~ 5;
#X connect 0 0 4 0;
#X connect 1 0 2 0;
#X connect 2 0 11 0;
#X connect 3 0 1 0;
#X connect 3 0 0 0;
#X connect 5 0 7 0;
#X connect 6 0 5 0;
#X connect 6 0 1 0;
#X connect 8 0 9 0;
#X connect 9 0 10 0;
#X connect 10 0 12 0;
#X connect 11 0 8 0;
#X connect 12 0 0 1;
#X connect 12 0 5 1;
#X restore -73 6 pd limit;
#X obj -34 183 delread~ delay1 300;
#X obj 11 148 *~ 0.6;
#X obj -231 -103 inlet~;
#X obj -176 -103 inlet~;
#X obj -289 -103 inlet~;
#X obj -351 294 freeverb~;
#X obj -254 110 delwrite~ delay1 400;
#N canvas 301 214 470 421 limit 0;
#X obj 86 322 *~;
#X obj 121 80 env~;
#X obj 121 102 dbtorms;
#X obj 86 57 inlet~;
#X obj 83 348 outlet~;
#X obj 230 320 *~;
#X obj 230 55 inlet~;
#X obj 227 346 outlet~;
#X msg 130 178 1 \$1;
#X obj 132 205 /;
#X obj 121 238 min 1;
#X obj 124 141 + 0.5;
#X obj 117 272 lop~ 5;
#X connect 0 0 4 0;
#X connect 1 0 2 0;
#X connect 2 0 11 0;
#X connect 3 0 1 0;
#X connect 3 0 0 0;
#X connect 5 0 7 0;
#X connect 6 0 5 0;
#X connect 6 0 1 0;
#X connect 8 0 9 0;
#X connect 9 0 10 0;
#X connect 10 0 12 0;
#X connect 11 0 8 0;
#X connect 12 0 0 1;
#X connect 12 0 5 1;
#X restore -293 1 pd limit;
#X obj -254 178 delread~ delay1 300;
#X obj -209 143 *~ 0.6;
#X obj -293 45 hip~ 500;
#X obj -124 -103 inlet~;
#X obj -274 473 outlet~;
#X obj -201 473 outlet~;
#X obj -131 366 lop~ 2500;
#X obj -351 361 lop~ 2500;
#X obj -73 50 hip~ 400;
#X msg 61 211 0.8;
#X msg 60 278 1;
#X msg 60 351 0.6;
#X obj 149 176 loadbang;
#X connect 0 0 26 0;
#X connect 1 0 0 0;
#X connect 1 0 17 0;
#X connect 2 0 0 0;
#X connect 2 0 17 0;
#X connect 3 0 0 0;
#X connect 3 0 17 0;
#X connect 4 0 1 0;
#X connect 4 0 9 0;
#X connect 5 0 2 0;
#X connect 5 0 8 0;
#X connect 6 0 3 0;
#X connect 6 0 7 0;
#X connect 11 0 28 0;
#X connect 12 0 0 1;
#X connect 12 0 13 0;
#X connect 13 0 10 0;
#X connect 14 0 19 0;
#X connect 15 0 11 0;
#X connect 16 0 19 0;
#X connect 17 0 27 0;
#X connect 19 0 22 0;
#X connect 20 0 17 1;
#X connect 20 0 21 0;
#X connect 21 0 18 0;
#X connect 22 0 18 0;
#X connect 22 0 17 0;
#X connect 23 0 11 0;
#X connect 26 0 25 0;
#X connect 27 0 24 0;
#X connect 28 0 10 0;
#X connect 28 0 0 0;
#X connect 29 0 9 0;
#X connect 29 0 1 0;
#X connect 30 0 8 0;
#X connect 30 0 2 0;
#X connect 31 0 7 0;
#X connect 31 0 3 0;
#X connect 32 0 29 0;
#X connect 32 0 30 0;
#X connect 32 0 31 0;
